#!OML:ASF E:\id_vita\Project 1\Capture day 1\Session 1\Male1.ASF
:FULLY-SPECIFIED
:DEGREES
494
root 37.0085 16.1603 -0.393719 302.171 84.7352 300.171
lowerback -3.99728 1.02732 1.43635
upperback 4.26161 1.27982 0.640781
thorax 6.69751 0.702276 -0.00968922
lowerneck -8.22172 -1.96679 5.05353
upperneck 39.2254 -1.5074 -1.41238
head 14.9483 0.58875 -1.5393
rclavicle 1.83876e-015 -7.95139e-015
rhumerus -24.9476 -6.96823 -84.7343
rradius 30.7606
rwrist 2.51622
rhand -21.7475 33.9249
rfingers 7.12502
rthumb 4.65258 3.99601
lclavicle 1.83876e-015 -7.95139e-015
lhumerus -41.054 32.7516 66.5243
lradius 5.01875
lwrist -15.728
lhand -14.9706 49.8339
lfingers 7.12502
lthumb 11.1931 79.5153
rfemur 13.2646 2.78639 27.7735
rtibia 12.7903
rfoot -12.891 -3.6016
rtoes -16.9276
lfemur -29.5995 -4.65449 -12.1588
ltibia 23.0162
lfoot -20.7084 6.26209
ltoes 4.09179
495
root 37.1516 16.1559 -0.406549 313.99 85.1204 311.823
lowerback -4.55752 1.08152 0.384416
upperback 4.24299 1.43454 0.374593
thorax 6.98305 0.731303 0.328989
lowerneck -8.40743 -1.89098 5.07427
upperneck 39.5509 -1.35866 -1.49348
head 15.1598 0.659098 -1.56033
rclavicle -6.85807e-015 -7.55382e-015
rhumerus -24.7841 -7.33823 -84.8464
rradius 29.91
rwrist 3.00612
rhand -21.8659 34.1558
rfingers 7.12502
rthumb 4.5383 4.22439
lclavicle -6.85807e-015 -7.55382e-015
lhumerus -41.3935 33.0154 66.2276
lradius 5.44076
lwrist -15.7641
lhand -14.7523 49.8952
lfingers 7.12502
lthumb 11.4036 79.5651
rfemur 12.6385 3.00956 26.5796
rtibia 14.4792
rfoot -13.2718 -3.29736
rtoes -17.4988
lfemur -29.0295 -4.56544 -13.1666
ltibia 22.9868
lfoot -20.1669 5.70639
ltoes 2.7806
496
root 37.2918 16.1298 -0.421347 314.723 84.5328 312.812
lowerback -4.47426 1.1302 0.754763
upperback 4.25567 1.46933 0.429261
thorax 6.95667 0.765932 0.180697
lowerneck -8.52692 -1.82867 5.11495
upperneck 39.7927 -1.22644 -1.60127
head 15.3144 0.717714 -1.59745
rclavicle -1.11816e-014 5.96354e-015
rhumerus -24.9299 -7.65636 -84.9543
rradius 29.4121
rwrist 3.40644
rhand -21.8321 34.0603
rfingers 7.12502
rthumb 4.57086 4.12957
lclavicle -1.11816e-014 5.96354e-015
lhumerus -41.808 33.2378 65.8746
lradius 5.83942
lwrist -15.8247
lhand -14.4428 50.1004
lfingers 7.12502
lthumb 11.7021 79.7535
rfemur 12.8863 3.3114 26.8824
rtibia 15.6788
rfoot -13.3748 -2.71986
rtoes -15.9044
lfemur -28.2135 -4.22996 -12.8658
ltibia 23.2363
lfoot -19.7388 4.8409
ltoes 1.59788
497
root 37.433 16.1279 -0.439319 324.051 84.7177 321.869
lowerback -4.84557 1.13102 -0.00402738
upperback 4.02554 1.53648 0.17219
thorax 6.91341 0.764862 0.348982
lowerneck -8.19674 -1.75254 5.03081
upperneck 39.7114 -1.06974 -1.58471
head 15.2033 0.77274 -1.54847
rclavicle -1.08338e-014 -1.98785e-015
rhumerus -25.3355 -7.90629 -85.0439
rradius 29.1201
rwrist 3.73409
rhand -21.6745 33.6553
rfingers 7.12502
rthumb 4.72303 3.72795
lclavicle -1.08338e-014 -1.98785e-015
lhumerus -42.4184 33.4201 65.4441
lradius 6.33887
lwrist -15.8715
lhand -14.2933 50.1047
lfingers 7.12502
lthumb 11.8463 79.7496
rfemur 12.4217 3.40788 25.8199
rtibia 16.9421
rfoot -12.7864 -1.27301
rtoes -11.2146
lfemur -27.9215 -4.27393 -13.7084
ltibia 23.2939
lfoot -18.9864 4.119
ltoes 0.768584
498
root 37.5733 16.1341 -0.46339 321.943 84.1612 319.898
lowerback -4.67254 1.06725 0.522572
upperback 3.87666 1.39954 0.316855
thorax 6.66492 0.718552 0.184183
lowerneck -8.01404 -1.6718 4.64747
upperneck 39.6468 -0.993172 -1.21612
head 15.1399 0.792855 -1.3107
rclavicle -1.04362e-015 -1.55052e-014
rhumerus -25.7545 -7.95588 -85.1147
rradius 28.7406
rwrist 3.96531
rhand -21.5621 33.4049
rfingers 7.12502
rthumb 4.83159 3.48001
lclavicle -1.04362e-015 -1.55052e-014
lhumerus -42.9746 33.8286 64.9718
lradius 6.4843
lwrist -16.04
lhand -14.2379 49.9077
lfingers 7.12502
lthumb 11.8997 79.5495
rfemur 12.5943 3.25988 26.1127
rtibia 17.7677
rfoot -12.2975 -0.427673
rtoes -10.4338
lfemur -27.486 -4.32176 -13.24
ltibia 23.6374
lfoot -18.8996 2.90064
ltoes 5.90017
499
root 37.717 16.1474 -0.483789 327.635 84.2906 325.422
lowerback -4.96417 0.973735 -0.084443
upperback 3.69513 1.32205 0.21142
thorax 6.62887 0.652369 0.409541
lowerneck -7.94747 -1.61111 4.76767
upperneck 39.932 -0.741549 -1.61453
head 15.2723 0.881339 -1.46557
rclavicle 1.88845e-015 5.96354e-015
rhumerus -26.0564 -7.96127 -85.1661
rradius 28.2365
rwrist 3.9978
rhand -21.6322 33.284
rfingers 7.12502
rthumb 4.76391 3.35756
lclavicle 1.88845e-015 5.96354e-015
lhumerus -43.282 34.218 64.6668
lradius 6.45154
lwrist -16.28
lhand -14.2018 49.7013
lfingers 7.12502
lthumb 11.9345 79.3412
rfemur 12.361 2.87023 25.1662
rtibia 18.7375
rfoot -11.8034 0.589174
rtoes -9.06976
lfemur -27.4182 -4.76218 -13.7835
ltibia 23.7914
lfoot -15.3322 2.4111
ltoes 6.38929
500
root 37.8657 16.1544 -0.496157 328.05 83.9589 326.042
lowerback -4.96155 0.942026 -0.0462549
upperback 3.6894 1.27242 0.278199
thorax 6.62087 0.627961 0.452373
lowerneck -8.02498 -1.54056 4.62391
upperneck 40.1575 -0.568575 -1.66369
head 15.4137 0.936051 -1.43749
rclavicle 9.69075e-015 -1.98785e-015
rhumerus -26.1394 -8.15008 -85.187
rradius 27.4676
rwrist 4.24011
rhand -21.7157 33.5132
rfingers 7.12502
rthumb 4.68325 3.58501
lclavicle 9.69075e-015 -1.98785e-015
lhumerus -43.5028 34.6138 64.456
lradius 6.54079
lwrist -16.5569
lhand -14.2762 49.6759
lfingers 7.12502
lthumb 11.8628 79.3199
rfemur 12.5797 2.92607 25.2233
rtibia 19.612
rfoot -11.1733 1.13044
rtoes -7.61012
lfemur -27.1187 -4.77347 -13.6312
ltibia 24.096
lfoot -12.6976 2.30908
ltoes 9.72322
501
root 38.0122 16.1706 -0.512365 331.514 83.9787 329.631
lowerback -5.06574 0.824928 -0.423598
upperback 3.68342 1.15099 0.181936
thorax 6.67012 0.552528 0.552431
lowerneck -7.99708 -1.4192 4.5241
upperneck 40.2527 -0.35997 -1.64374
head 15.4663 1.0147 -1.3812
rclavicle 6.95746e-016 1.59028e-015
rhumerus -26.2037 -8.64278 -85.2094
rradius 26.6859
rwrist 4.82021
rhand -21.7025 33.8313
rfingers 7.12502
rthumb 4.69608 3.90339
lclavicle 6.95746e-016 1.59028e-015
lhumerus -43.7876 35.0364 64.1231
lradius 6.78654
lwrist -16.8896
lhand -13.9734 49.8371
lfingers 7.12502
lthumb 12.1547 79.464
rfemur 12.387 2.72679 24.6621
rtibia 20.9978
rfoot -10.7764 1.76936
rtoes -6.53098
lfemur -26.8657 -4.17218 -14.3023
ltibia 24.1896
lfoot -10.3941 1.87031
ltoes 10.7442
502
root 38.1573 16.1834 -0.524814 334.852 84.0321 333.207
lowerback -5.15367 0.651787 -0.939539
upperback 3.7161 0.96896 0.0688869
thorax 6.75166 0.441168 0.705961
lowerneck -7.63123 -1.29825 4.8906
upperneck 40.0954 -0.116012 -1.9977
head 15.3067 1.12104 -1.5612
rclavicle -1.48095e-014 -5.96354e-015
rhumerus -26.3323 -9.27179 -85.2851
rradius 25.9474
rwrist 5.66884
rhand -21.602 33.8825
rfingers 7.12502
rthumb 4.79305 3.95668
lclavicle -1.48095e-014 -5.96354e-015
lhumerus -44.1423 35.4778 63.5972
lradius 7.09905
lwrist -17.2652
lhand -13.5102 49.8995
lfingers 7.12502
lthumb 12.6013 79.4994
rfemur 12.1896 2.49222 24.1013
rtibia 22.5687
rfoot -10.0123 2.47777
rtoes -4.97358
lfemur -26.4091 -3.14138 -15.1679
ltibia 24.4264
lfoot -9.1298 1.01256
ltoes 5.90713
503
root 38.2875 16.1945 -0.549053 344.06 84.268 342.33
lowerback -5.35623 0.413127 -1.97288
upperback 3.53952 0.752522 -0.234499
thorax 6.6785 0.29475 0.946408
lowerneck -7.27289 -1.1936 5.33551
upperneck 40.0537 0.145437 -2.47438
head 15.2113 1.23732 -1.80571
rclavicle 8.69683e-015 -3.18055e-015
rhumerus -26.5421 -9.78128 -85.3766
rradius 25.1684
rwrist 6.5361
rhand -21.4129 33.6726
rfingers 7.12502
rthumb 4.97571 3.75104
lclavicle 8.69683e-015 -3.18055e-015
lhumerus -44.3613 36.0668 63.0145
lradius 7.00008
lwrist -17.7634
lhand -13.6362 49.75
lfingers 7.12502
lthumb 12.4799 79.3573
rfemur 11.4884 1.91411 22.5986
rtibia 24.3768
rfoot -9.16195 3.69606
rtoes -1.91709
lfemur -26.2257 -2.25252 -16.7501
ltibia 24.7017
lfoot -8.95742 0.806456
ltoes -1.23333
504
root 38.4205 16.2043 -0.560552 346.398 84.1752 344.843
lowerback -5.21266 0.244336 -2.40383
upperback 3.43366 0.558236 -0.278385
thorax 6.48726 0.183305 1.11943
lowerneck -7.16964 -1.10983 5.30797
upperneck 40.2075 0.321402 -2.52928
head 15.2754 1.30777 -1.80039
rclavicle -1.55052e-014 -5.96354e-015
rhumerus -26.8441 -10.1879 -85.3954
rradius 24.5366
rwrist 7.07685
rhand -21.2654 33.4259
rfingers 7.12502
rthumb 5.1181 3.50772
lclavicle -1.55052e-014 -5.96354e-015
lhumerus -44.3236 36.662 62.6022
lradius 6.62516
lwrist -18.4527
lhand -13.583 49.7379
lfingers 7.12502
lthumb 12.5312 79.3421
rfemur 10.9749 1.77987 22.1974
rtibia 26.3802
rfoot -7.96071 4.4824
rtoes 1.2183
lfemur -25.7492 -1.53025 -17.3643
ltibia 25.0021
lfoot -9.21091 0.608688
ltoes 0.902856
505
root 38.5588 16.2159 -0.565023 346.583 84.1818 345.211
lowerback -5.07823 0.0828727 -2.70039
upperback 3.35172 0.357329 -0.244288
thorax 6.3298 0.0727647 1.29901
lowerneck -7.0319 -1.04903 4.97695
upperneck 40.3017 0.408054 -2.26183
head 15.2967 1.33443 -1.61395
rclavicle -1.87852e-014 8.74653e-015
rhumerus -27.2795 -10.6872 -85.3069
rradius 23.9712
rwrist 7.6315
rhand -21.3185 33.5315
rfingers 7.12502
rthumb 5.06681 3.61208
lclavicle -1.87852e-014 8.74653e-015
lhumerus -44.2434 37.1261 62.3089
lradius 6.34423
lwrist -19.2388
lhand -13.2303 49.7874
lfingers 7.12502
lthumb 12.8712 79.3706
rfemur 10.3 1.68526 22.0965
rtibia 28.6045
rfoot -6.59448 5.29641
rtoes 4.73853
lfemur -25.2313 -1.03903 -17.6788
ltibia 25.2874
lfoot -9.54106 -0.45208
ltoes 0.372553
506
root 38.6868 16.229 -0.584689 350.875 84.2913 349.497
lowerback -5.09239 -0.0186042 -3.09976
upperback 3.22025 0.260474 -0.418356
thorax 6.20392 0.0148541 1.33132
lowerneck -6.82151 -1.03896 4.94013
upperneck 40.3985 0.474763 -2.2806
head 15.3 1.36338 -1.60505
rclavicle -1.55549e-014 -7.95139e-016
rhumerus -27.7144 -11.6532 -85.1209
rradius 23.3295
rwrist 8.3103
rhand -21.5382 33.79
rfingers 7.12502
rthumb 4.85473 3.86567
lclavicle -1.55549e-014 -7.95139e-016
lhumerus -43.9681 37.4168 62.192
lradius 6.16982
lwrist -20.0101
lhand -13.2624 49.8485
lfingers 7.12502
lthumb 12.8402 79.4336
rfemur 9.23846 1.2659 21.2847
rtibia 30.9085
rfoot -5.13808 6.54728
rtoes 9.47803
lfemur -24.8892 -0.738041 -18.448
ltibia 25.5275
lfoot -9.7366 -1.24
ltoes -0.373445
507
root 38.8048 16.2394 -0.596572 356.461 84.24 355.101
lowerback -5.06086 -0.0217399 -3.64653
upperback 3.13996 0.309701 -0.637468
thorax 6.09996 0.024527 1.41442
lowerneck -6.7322 -1.06963 4.98368
upperneck 40.4893 0.477707 -2.37606
head 15.3252 1.36519 -1.6533
rclavicle 2.03754e-015 7.15625e-015
rhumerus -27.9283 -12.9889 -84.8513
rradius 22.5336
rwrist 9.12344
rhand -21.7234 33.8006
rfingers 7.12502
rthumb 4.67587 3.87221
lclavicle 2.03754e-015 7.15625e-015
lhumerus -43.3326 37.618 62.253
lradius 5.95677
lwrist -20.7989
lhand -13.3063 49.9687
lfingers 7.12502
lthumb 12.7979 79.5565
rfemur 8.05886 1.12848 20.4864
rtibia 33.3249
rfoot -3.36726 7.41365
rtoes 14.6478
lfemur -24.0634 -0.105829 -19.3216
ltibia 25.6099
lfoot -10.8176 -0.815118
ltoes 0.623526
